HIERARCHY
ROOT hip
{
	OFFSET 0.000000 0.000000 0.000000 
	CHANNELS 6 Xposition Yposition Zposition Xrotation Zrotation Yrotation
	JOINT abdomen
	{
		OFFSET 0.000000 3.402643 0.000000 
		CHANNELS 3 Xrotation Zrotation Yrotation
		JOINT chest
		{
			OFFSET 0.000000 8.438565 -0.680529 
			CHANNELS 3 Xrotation Zrotation Yrotation
			JOINT neck
			{
				OFFSET 0.000000 10.207942 -0.272212 
				CHANNELS 3 Xrotation Zrotation Yrotation
				JOINT head
				{
					OFFSET 0.000000 3.130431 0.000000 
					CHANNELS 3 Xrotation Zrotation Yrotation
					End Site
					{
						OFFSET 0.000000 3.130435 0.000000 
					}
				}
			}
			JOINT lCollar
			{
				OFFSET 3.470700 6.669187 -0.816635 
				CHANNELS 3 Yrotation Zrotation Xrotation
				JOINT lShldr
				{
					OFFSET 3.198488 0.000000 0.000000 
					CHANNELS 3 Zrotation Yrotation Xrotation
					JOINT lForeArm
					{
						OFFSET 10.139888 0.000000 0.000000 
						CHANNELS 3 Yrotation Zrotation Xrotation
						JOINT lHand
						{
							OFFSET 8.370511 0.000000 0.000000 
							CHANNELS 3 Zrotation Yrotation Xrotation
							End Site
							{
								OFFSET 4.083176 0.000000 0.000000 
							}
						}
					}
				}
			}
			JOINT rCollar
			{
				OFFSET -3.470700 6.669187 -0.816635 
				CHANNELS 3 Yrotation Zrotation Xrotation
				JOINT rShldr
				{
					OFFSET -3.198488 0.000000 0.000000 
					CHANNELS 3 Zrotation Yrotation Xrotation
					JOINT rForeArm
					{
						OFFSET -10.139888 0.000000 0.000000 
						CHANNELS 3 Yrotation Zrotation Xrotation
						JOINT rHand
						{
							OFFSET -8.370511 0.000000 0.000000 
							CHANNELS 3 Zrotation Yrotation Xrotation
							End Site
							{
								OFFSET -4.083176 0.000000 0.000000 
							}
						}
					}
				}
			}
		}
	}
	JOINT lThigh
	{
		OFFSET 5.308129 -1.633274 1.361059 
		CHANNELS 3 Xrotation Zrotation Yrotation
		JOINT lShin
		{
			OFFSET -2.041588 -20.007561 0.000000 
			CHANNELS 3 Xrotation Zrotation Yrotation
			JOINT lFoot
			{
				OFFSET 0.000000 -19.190928 -1.224953 
				CHANNELS 3 Xrotation Yrotation Zrotation
				End Site
				{
					OFFSET 0.000000 -2.449906 4.627600 
				}
			}
		}
	}
	JOINT rThigh
	{
		OFFSET -5.308129 -1.633274 1.361059 
		CHANNELS 3 Xrotation Zrotation Yrotation
		JOINT rShin
		{
			OFFSET 2.041588 -20.007561 0.000000 
			CHANNELS 3 Xrotation Zrotation Yrotation
			JOINT rFoot
			{
				OFFSET 0.000000 -19.190928 -1.224953 
				CHANNELS 3 Xrotation Yrotation Zrotation
				End Site
				{
					OFFSET 0.000000 -2.449906 4.627600 
				}
			}
		}
	}
}
MOTION
Frames: 10
Frame Time: 0.016667
0.501401 50.903248 -0.244795 0.433036 13.093528 -1.061337 9.301614 9.913959 5.007454 0.000000 0.000000 0.000000 -10.198858 -7.313149 37.504845 0.000000 0.000000 0.000000 0.000000 0.000000 0.000000 -1.839589 -18.730448 29.773180 -81.129272 39.937244 32.229073 19.309952 -2.116901 -21.436855 0.000000 0.000000 0.000000 61.951763 5.068336 60.615990 6.094045 -6.816749 -5.595606 -8.789891 26.937885 -20.937845 -6.906616 -8.402526 8.476340 4.903546 -4.399473 -5.288667 1.403480 -1.363792 -0.217540 -21.833580 -10.975496 -3.516640 36.567654 -6.171553 -6.283092 -19.741009 5.653712 1.629068 
0.467812 50.858463 -0.272786 0.862484 12.478360 -1.068767 8.948582 9.297243 5.265712 0.000000 0.000000 0.000000 -9.852616 -6.870690 34.421059 0.000000 0.000000 0.000000 0.000000 0.000000 0.000000 -5.992863 -19.988113 33.526859 -75.214912 39.284462 27.722290 17.768555 -1.779522 -21.524549 0.000000 0.000000 0.000000 62.501060 4.988938 61.672115 6.151516 -6.861212 -5.840295 -8.354121 26.992485 -21.981628 -7.054718 -7.924965 8.324516 5.034672 -4.236811 -5.382113 1.183378 -0.978810 -0.370029 -21.353428 -10.163959 -3.464426 35.218151 -5.995676 -6.042242 -19.043964 5.275322 1.075946 
0.462214 50.768887 -0.166415 1.314741 11.600725 -0.697122 8.251237 8.251646 5.624926 0.000000 0.000000 0.000000 -9.221819 -6.547212 29.064545 0.000000 0.000000 0.000000 0.000000 0.000000 0.000000 -13.612556 -21.754730 40.477806 -65.221901 37.239120 20.196852 15.059286 -1.113032 -21.769480 0.000000 0.000000 0.000000 63.433941 4.478331 63.039749 6.384807 -6.915091 -6.081596 -7.751867 27.020483 -23.971333 -7.103273 -7.192998 7.975049 5.168818 -3.874325 -5.470807 0.801542 -0.652396 -0.533824 -20.320438 -9.218140 -3.418119 33.077667 -5.478006 -5.943605 -17.898590 5.052849 0.097249 
0.456617 50.679321 -0.060053 1.755382 10.722486 -0.327540 7.551650 7.206886 5.995669 0.000000 0.000000 0.000000 -8.629150 -6.164695 23.719057 0.000000 0.000000 0.000000 0.000000 0.000000 0.000000 -21.466406 -22.623955 47.678295 -55.949902 34.224461 13.452740 12.347431 -0.446270 -22.048546 0.000000 0.000000 0.000000 64.346512 3.953039 64.386559 6.616705 -6.980761 -6.322535 -7.156893 27.062073 -25.964874 -7.146512 -6.482979 7.623490 5.298530 -3.514803 -5.558118 0.427187 -0.378105 -0.715427 -19.304655 -8.270733 -3.343953 30.923170 -4.941190 -5.899865 -16.771669 4.819392 -0.917229 
0.462215 50.673717 0.079912 2.016929 10.019472 0.199130 6.940639 6.321005 6.160943 0.000000 0.000000 0.000000 -7.754487 -6.212865 17.822943 0.000000 0.000000 0.000000 0.000000 0.000000 0.000000 -30.499418 -22.437799 56.195366 -46.449043 30.061390 6.891366 9.195068 0.311834 -22.315601 0.000000 0.000000 0.000000 65.177208 3.222080 65.535667 6.840802 -7.036529 -6.553616 -6.548092 27.284330 -28.429623 -7.046283 -5.856924 7.098764 5.736585 -3.270187 -5.843845 0.232599 -0.201060 -1.108995 -18.072294 -7.215420 -2.909996 29.205275 -4.545747 -5.697905 -16.012897 4.130702 -1.681336 
0.467816 50.668125 0.219877 2.265384 9.315679 0.722458 6.326473 5.445240 6.337465 0.000000 0.000000 0.000000 -6.865477 -6.163941 11.925391 0.000000 0.000000 0.000000 0.000000 0.000000 0.000000 -39.346920 -21.034952 64.521507 -37.923042 25.078791 1.430883 6.038433 1.047184 -22.622932 0.000000 0.000000 0.000000 65.991264 2.468357 66.674896 7.074307 -7.095364 -6.784188 -5.953438 27.525158 -30.912432 -6.952861 -5.243360 6.565048 6.167770 -2.997682 -6.116430 0.070429 -0.024201 -1.523253 -16.827625 -6.159047 -2.462001 27.488338 -4.150311 -5.518332 -15.259008 3.477450 -2.488673 
0.529398 50.746502 0.488596 2.190381 8.962451 1.335730 5.879285 5.096685 6.246328 0.000000 0.000000 0.000000 -5.838893 -6.821453 7.188787 0.000000 0.000000 0.000000 0.000000 0.000000 0.000000 -46.525684 -19.043030 71.220490 -31.603111 20.351622 -2.226529 3.356655 1.490471 -23.001255 0.000000 0.000000 0.000000 66.308823 1.470434 67.372421 7.408746 -7.237390 -6.809925 -5.760438 27.727108 -33.509911 -6.536928 -5.074731 5.818411 6.681395 -2.567680 -6.327674 -0.354523 0.594142 -1.759389 -15.702606 -5.722641 -2.300366 27.068335 -3.925704 -5.556927 -15.499962 2.786101 -3.067850 
0.590973 50.824871 0.757295 2.107757 8.608391 1.945999 5.441933 4.738289 6.154526 0.000000 0.000000 0.000000 -4.755374 -7.395801 2.421315 0.000000 0.000000 0.000000 0.000000 0.000000 0.000000 -53.338299 -16.304001 77.525635 -25.774317 15.290007 -5.220475 0.664801 1.905349 -23.398664 0.000000 0.000000 0.000000 66.603928 0.463691 68.060516 7.741838 -7.381042 -6.845013 -5.567011 27.946772 -36.106098 -6.139655 -4.910018 5.064050 7.187620 -2.138496 -6.515067 -0.753626 1.208956 -1.972118 -14.556565 -5.291796 -2.118093 26.659994 -3.686992 -5.613490 -15.755826 2.051418 -3.641718 
0.574177 50.847271 0.762894 2.013944 8.344427 2.034347 5.264210 4.475391 6.240523 0.000000 0.000000 0.000000 -5.285793 -6.518790 2.171960 0.000000 0.000000 0.000000 0.000000 0.000000 0.000000 -53.948421 -14.219033 77.054741 -25.252920 15.292474 -4.276222 1.542439 1.619397 -23.507475 0.000000 0.000000 0.000000 67.173042 -0.174884 67.271629 8.417878 -7.762514 -5.906010 -4.646256 26.551847 -34.890476 -5.493281 -4.450426 5.029434 6.701016 -2.312786 -5.733753 -0.509978 0.969859 -2.263789 -13.336677 -5.457931 -2.342943 24.968424 -3.696842 -5.529924 -14.781863 2.057544 -3.139184 
0.557376 50.869675 0.768496 1.929083 8.080473 2.121308 5.085698 4.212570 6.325914 0.000000 0.000000 0.000000 -5.803411 -5.641404 1.913310 0.000000 0.000000 0.000000 0.000000 0.000000 0.000000 -54.575043 -12.147294 76.558708 -24.728868 15.304226 -3.334000 2.430182 1.340745 -23.617744 0.000000 0.000000 0.000000 67.748093 -0.814178 66.480293 9.096172 -8.134264 -4.976809 -3.770900 25.141930 -33.718697 -4.840092 -4.001690 4.969534 6.215351 -2.499664 -4.902564 -0.249155 0.746741 -2.558300 -12.106344 -5.623655 -2.591074 23.273254 -3.710452 -5.437092 -13.829348 2.106387 -2.628344 
